<svg width="100" height="100" viewBox="0 0 100 100" fill="none" xmlns="http://www.w3.org/2000/svg">
<path fill-rule="evenodd" clip-rule="evenodd" d="M50 6.5C25.9756 6.5 6.5 25.9756 6.5 50C6.5 74.0244 25.9756 93.5 50 93.5C74.0244 93.5 93.5 74.0244 93.5 50C93.5 25.9756 74.0244 6.5 50 6.5ZM1.5 50C1.5 23.2142 23.2142 1.5 50 1.5C76.7858 1.5 98.5 23.2142 98.5 50C98.5 76.7858 76.7858 98.5 50 98.5C23.2142 98.5 1.5 76.7858 1.5 50ZM78.7763 31.3462C79.8395 32.2271 79.9873 33.8031 79.1064 34.8663L47.2265 73.3442L21.3595 52.8031C20.2782 51.9445 20.0977 50.3719 20.9563 49.2907C21.815 48.2094 23.3876 48.0289 24.4688 48.8876L46.5008 66.3831L75.2562 31.6763C76.1371 30.6131 77.7131 30.4653 78.7763 31.3462Z" fill="black"/>
</svg>
