<svg width="48" height="48" viewBox="0 0 48 48" fill="none" xmlns="http://www.w3.org/2000/svg">
<path fill-rule="evenodd" clip-rule="evenodd" d="M24 44C35.0457 44 44 35.0457 44 24C44 12.9543 35.0457 4 24 4C12.9543 4 4 12.9543 4 24C4 35.0457 12.9543 44 24 44ZM24 46C36.1503 46 46 36.1503 46 24C46 11.8497 36.1503 2 24 2C11.8497 2 2 11.8497 2 24C2 36.1503 11.8497 46 24 46Z" fill="black"/>
<path fill-rule="evenodd" clip-rule="evenodd" d="M37.5607 14.4393C38.1465 15.0251 38.1465 15.9748 37.5607 16.5606L20.5193 33.602L11.3125 24.7263C10.7161 24.1514 10.6987 23.2018 11.2737 22.6054C11.8486 22.009 12.7982 21.9916 13.3946 22.5665L20.4808 29.3979L35.4394 14.4393C36.0252 13.8535 36.9749 13.8535 37.5607 14.4393Z" fill="black"/>
</svg>
