<svg xmlns="http://www.w3.org/2000/svg" width="48" height="48" viewBox="0 0 48 48">
  <defs>
    <style>
      .a {
        fill: #666;
      }
    </style>
  </defs>
  <title>_</title>
  <path class="a" d="M18.18066,41.89355a9.97615,9.97615,0,0,1-7.105-2.96924,10.49853,10.49853,0,0,1,0-14.84863L27.20215,8.19141A7.49989,7.49989,0,0,1,37.80322,18.80322L22.63184,34.439a5.00822,5.00822,0,0,1-7.08154.01074,5.19406,5.19406,0,0,1-.17139-7.24268L29.293,13.293,30.707,14.707,16.793,28.62109a3.21136,3.21136,0,0,0,.17139,4.41455,3.00392,3.00392,0,0,0,4.24268,0L36.37842,17.3999a5.50011,5.50011,0,1,0-7.76758-7.78906L12.48438,25.49512a8.49926,8.49926,0,0,0,.00537,12.01514,8.01887,8.01887,0,0,0,5.87891,2.38135A8.65933,8.65933,0,0,0,24.293,37.293l14.5-14.5L40.207,24.207l-14.5,14.5a10.64932,10.64932,0,0,1-7.293,3.18408C18.33643,41.89258,18.2583,41.89355,18.18066,41.89355Z"/>
</svg>
